Coordinates
version=1
nRows=6
nColumns=63
inDegrees=yes

Units are S.I. units (second, meters, Newtons, ...)
If the header above contains a line with 'inDegrees', this indicates whether rotational values are in degrees (yes) or radians (no).

endheader
time	pelvis_tilt	pelvis_list	pelvis_rotation	pelvis_tx	pelvis_ty	pelvis_tz	hip_flexion_r	hip_adduction_r	hip_rotation_r	knee_angle_r	knee_angle_r_beta	ankle_angle_r	subtalar_angle_r	mtp_angle_r	hip_flexion_l	hip_adduction_l	hip_rotation_l	knee_angle_l	knee_angle_l_beta	ankle_angle_l	subtalar_angle_l	mtp_angle_l	L5_S1_Flex_Ext	L5_S1_Lat_Bending	L5_S1_axial_rotation	L4_L5_Flex_Ext	L4_L5_Lat_Bending	L4_L5_axial_rotation	L3_L4_Flex_Ext	L3_L4_Lat_Bending	L3_L4_axial_rotation	L2_L3_Flex_Ext	L2_L3_Lat_Bending	L2_L3_axial_rotation	L1_L2_Flex_Ext	L1_L2_Lat_Bending	L1_L2_axial_rotation	L1_T12_Flex_Ext	L1_T12_Lat_Bending	L1_T12_axial_rotation	Abs_r3	Abs_r2	Abs_r1	Abs_t1	Abs_t2	neck_flexion	neck_bending	neck_rotation	arm_flex_r	arm_add_r	arm_rot_r	elbow_flex_r	pro_sup_r	wrist_flex_r	wrist_dev_r	arm_flex_l	arm_add_l	arm_rot_l	elbow_flex_l	pro_sup_l	wrist_flex_l	wrist_dev_l
      2.81666667	     -0.62090194	     -5.35976116	     92.58279730	      0.19678871	      1.01981127	      0.40965626	     -6.10589427	      0.16873324	     -1.86404263	     10.68582547	      0.18650284	     31.26127613	     -1.06200268	      0.00000000	     -8.77121084	      1.48838451	      2.62226165	      5.88906822	      0.10278363	     29.34980286	     -1.89213641	      0.00000000	     -0.10676693	     -0.09631369	     -1.02775630	     -0.19827687	     -0.12809720	     -1.09199107	     -0.17540739	     -0.23417710	     -1.09199107	     -0.12202393	     -0.23417710	     -0.89928676	     -0.09914377	     -0.19640287	     -0.83505199	     -0.06100662	     -0.14918990	     -0.77081722	     -0.76262551	     -1.08951968	     -5.71607219	      0.00000000	      0.00000000	     18.75990231	      0.18277723	      8.10981483	     13.17722426	     -9.14438027	     73.06392359	     43.07845822	     79.36581842	     11.90078703	      8.07174475	      4.92850494	     -7.58014011	     45.90379424	     50.57487153	     83.62146357	     15.44119420	     13.82852806
      2.83333333	     -0.57507865	     -5.37118057	     92.61813261	      0.19691594	      1.01970893	      0.40931406	     -6.12880942	      0.22458068	     -1.96618392	     10.65875386	      0.18603035	     31.24615549	     -1.01853601	      0.00000000	     -8.74385819	      1.41456823	      2.49790225	      6.09502893	      0.10637832	     29.17401179	     -1.78222134	      0.00000000	     -0.09097881	     -0.10335541	     -1.06441824	     -0.16895674	     -0.13746270	     -1.13094438	     -0.14946908	     -0.25129835	     -1.13094438	     -0.10397968	     -0.25129835	     -0.93136596	     -0.08448292	     -0.21076236	     -0.86483982	     -0.05198529	     -0.16009754	     -0.79831368	     -0.64985253	     -1.16917711	     -5.91997490	      0.00000000	      0.00000000	     18.26220203	     -0.03645928	      7.80000908	     13.77109199	     -9.19226157	     74.27460136	     43.64451199	     83.11023391	     10.41914235	      8.43356376	      4.76635569	     -7.51473285	     45.32045266	     50.48159203	     85.49972374	     15.98616286	     12.74644795
      2.85000000	     -0.59275674	     -5.24479728	     92.62471349	      0.19727854	      1.01987382	      0.40864727	     -6.34525205	      0.26027830	     -1.74071345	     10.56752883	      0.18443817	     31.11388431	     -1.48480525	      0.00000000	     -8.96120109	      1.38921628	      2.51735658	      6.06971083	      0.10593644	     28.99574853	     -1.75833445	      0.00000000	     -0.08853764	     -0.11969103	     -1.06606679	     -0.16442326	     -0.15918907	     -1.13269597	     -0.14545850	     -0.29101676	     -1.13269597	     -0.10118967	     -0.29101676	     -0.93280844	     -0.08221606	     -0.24407394	     -0.86617927	     -0.05059041	     -0.18540140	     -0.79955010	     -0.63241554	     -1.35396883	     -5.92914369	      0.00000000	      0.00000000	     17.53505213	      0.04751554	      7.84533491	     13.81071383	     -9.11097560	     74.13418739	     43.71243959	     86.05885752	      9.93403247	      7.89419423	      4.85902042	     -7.58083125	     45.57661055	     50.32709429	     85.91672568	     16.43262457	     12.61404047
      2.86666667	     -0.65336154	     -5.08322377	     92.55548837	      0.19780696	      1.02025625	      0.40780026	     -6.61333948	      0.21505888	     -1.85124539	     10.45327086	      0.18244399	     31.01810323	     -1.40331526	      0.00000000	     -9.20360498	      1.36141771	      1.43068013	      6.01556741	      0.10499146	     29.22731649	     -0.31202624	      0.00000000	     -0.08698080	     -0.14227420	     -1.06950747	     -0.16153204	     -0.18922468	     -1.13635168	     -0.14290076	     -0.34592548	     -1.13635168	     -0.09941036	     -0.34592548	     -0.93581903	     -0.08077037	     -0.29012554	     -0.86897482	     -0.04970083	     -0.22038273	     -0.80213060	     -0.62129516	     -1.60943416	     -5.94827968	      0.00000000	      0.00000000	     16.82479367	      0.19031578	      7.84339242	     13.83916287	     -8.95571202	     74.27214560	     43.74473716	     87.28177774	      9.02888187	      8.10669131	      4.92872147	     -7.71273571	     46.01577211	     50.04189545	     85.82435841	     16.78721033	     12.37795242
      2.88333333	     -0.72209967	     -4.87347368	     92.29004804	      0.19858144	      1.02077328	      0.40664157	     -6.95063883	      0.21630502	     -0.92965419	     10.29860652	      0.17974459	     30.74814156	     -2.48065831	      0.00000000	     -9.63709564	      1.46893039	      2.07271775	      5.64256678	      0.09848137	     29.00796383	     -1.41686092	      0.00000000	     -0.08926651	     -0.16397730	     -1.04546251	     -0.16577684	     -0.21808981	     -1.11080391	     -0.14665596	     -0.39869440	     -1.11080391	     -0.10202270	     -0.39869440	     -0.91477969	     -0.08289289	     -0.33438251	     -0.84943829	     -0.05100689	     -0.25400083	     -0.78409688	     -0.63762179	     -1.85494398	     -5.81454882	      0.00000000	      0.00000000	     16.17131347	      0.28208513	      7.88118481	     13.77088136	     -8.76929171	     74.34573015	     43.72498223	     87.99742618	      8.02696957	      8.55723471	      4.96125630	     -7.82219059	     46.54213016	     49.64716169	     85.15804129	     17.00854549	     12.34038258
      2.90000000	     -0.82285790	     -4.68581019	     92.14352857	      0.19905530	      1.02140308	      0.40547886	     -7.26928990	      0.04788494	     -1.70452838	     10.17032293	      0.17750562	     30.86285890	     -1.32219637	      0.00000000	     -9.98354475	      1.55236536	      1.79668889	      5.33020374	      0.09302961	     29.20471762	     -1.05726092	      0.00000000	     -0.09086570	     -0.18659557	     -1.05256426	     -0.16874668	     -0.24817211	     -1.11834953	     -0.14928325	     -0.45368847	     -1.11834953	     -0.10385040	     -0.45368847	     -0.92099373	     -0.08437789	     -0.38050569	     -0.85520846	     -0.05192066	     -0.28903654	     -0.78942320	     -0.64904458	     -2.11080640	     -5.85404665	      0.00000000	      0.00000000	     15.60848846	      0.39508162	      8.00896544	     13.80244695	     -8.55215563	     74.80413402	     43.49934301	     88.47802249	      7.04943834	      8.38631615	      5.06176196	     -7.96311577	     47.27219454	     49.17694147	     83.94647757	     17.28339249	     12.47225187
